<svg xmlns="http://www.w3.org/2000/svg" width="1280" height="720" viewBox="0 0 1280 720">
  <rect width="1280" height="720" fill="#f9fafb"/>
  <text x="80" y="95" fill="#143642" font-family="Verdana, sans-serif" font-size="40" font-weight="700">Blocos da modelagem</text>
  <text x="80" y="138" fill="#52616b" font-family="Verdana, sans-serif" font-size="24">Veiculos, demandas e tempo alimentam um objetivo comum e um conjunto de restricoes.</text>

  <rect x="120" y="240" width="240" height="180" rx="28" fill="#143642"/>
  <text x="175" y="325" fill="#ffffff" font-family="Verdana, sans-serif" font-size="34" font-weight="700">Veiculos</text>

  <rect x="120" y="470" width="240" height="180" rx="28" fill="#2a9d8f"/>
  <text x="165" y="555" fill="#ffffff" font-family="Verdana, sans-serif" font-size="34" font-weight="700">Demandas</text>

  <rect x="480" y="355" width="300" height="180" rx="28" fill="#f4a261"/>
  <text x="545" y="440" fill="#143642" font-family="Verdana, sans-serif" font-size="34" font-weight="700">Modelo</text>

  <rect x="920" y="240" width="240" height="180" rx="28" fill="#bc3908"/>
  <text x="990" y="325" fill="#ffffff" font-family="Verdana, sans-serif" font-size="34" font-weight="700">Tempo</text>

  <rect x="920" y="470" width="240" height="180" rx="28" fill="#386641"/>
  <text x="980" y="555" fill="#ffffff" font-family="Verdana, sans-serif" font-size="34" font-weight="700">Rotas</text>

  <path d="M360 330 C410 330, 430 390, 480 430" fill="none" stroke="#143642" stroke-width="10" stroke-linecap="round"/>
  <polygon points="470,412 495,440 454,438" fill="#143642"/>
  <path d="M360 560 C410 560, 430 520, 480 470" fill="none" stroke="#143642" stroke-width="10" stroke-linecap="round"/>
  <polygon points="454,463 495,460 470,488" fill="#143642"/>
  <path d="M780 440 C840 440, 860 330, 920 330" fill="none" stroke="#143642" stroke-width="10" stroke-linecap="round"/>
  <polygon points="910,315 945,330 910,345" fill="#143642"/>
  <path d="M780 440 C840 440, 860 560, 920 560" fill="none" stroke="#143642" stroke-width="10" stroke-linecap="round"/>
  <polygon points="910,545 945,560 910,575" fill="#143642"/>
</svg>
